<svg width="516" height="240" viewBox="0 0 516 240" fill="none" xmlns="http://www.w3.org/2000/svg">
<g id="ProofPreview/Truck">
<g clip-path="url(#clip0_147_18664)">
<path d="M0 16C0 7.16344 7.16344 0 16 0H500C508.837 0 516 7.16344 516 16V224C516 232.837 508.837 240 500 240H16C7.16345 240 0 232.837 0 224V16Z" fill="#22252A"/>
<g id="IllustrativeCameraFeed/Truck" clip-path="url(#clip1_147_18664)">
<path id="Vector" d="M516 0H0V240H516V0Z" fill="#22252A"/>
<path id="Vector_2" d="M28.6666 184.211L258 215.789L487.333 184.211V55.2632L258 20L28.6666 55.2632V184.211Z" fill="#6E737B"/>
<path id="Vector_3" d="M28.6666 184.211L258 105.263L487.333 184.211L258 215.79L28.6666 184.211Z" fill="#6E737B"/>
<path id="Vector_4" d="M258 20V105.263M487.333 55.2632L258 105.263L28.6666 55.2632" stroke="#3D424A" stroke-opacity="0.22" stroke-width="2"/>
<path id="Vector_5" d="M43 126.316L104.275 113.158L179.167 126.316V175.79L111.083 189.474L43 175.79V126.316Z" fill="#F8FAFC" stroke="#22252A" stroke-width="2"/>
<path id="Vector_6" d="M43 126.316L111.083 139.474M111.083 139.474L179.167 126.316M111.083 139.474V188.947" stroke="#6E737B" stroke-width="2"/>
<g id="Vector_7">
<path d="M60.2 156H91.7333H60.2Z" fill="#22252A"/>
<path d="M60.2 156H91.7333" stroke="#6E737B" stroke-width="4"/>
</g>
<path id="Vector_8" d="M189.2 123.684L250.475 110.526L325.367 123.684V173.158L257.283 186.842L189.2 173.158V123.684Z" fill="#F8FAFC" stroke="#22252A" stroke-width="2"/>
<path id="Vector_9" d="M189.2 123.684L257.283 136.842M257.283 136.842L325.367 123.684M257.283 136.842V186.316" stroke="#6E737B" stroke-width="2"/>
<g id="Vector_10">
<path d="M206.4 153.368H237.933H206.4Z" fill="#22252A"/>
<path d="M206.4 153.368H237.933" stroke="#6E737B" stroke-width="4"/>
</g>
<path id="Vector_11" d="M335.4 121.053L396.675 107.895L471.567 121.053V170.526L403.483 184.211L335.4 170.526V121.053Z" fill="#F8FAFC" stroke="#22252A" stroke-width="2"/>
<path id="Vector_12" d="M335.4 121.053L403.483 134.211M403.483 134.211L471.567 121.053M403.483 134.211V183.684" stroke="#6E737B" stroke-width="2"/>
<g id="Vector_13">
<path d="M352.6 150.737H384.133H352.6Z" fill="#22252A"/>
<path d="M352.6 150.737H384.133" stroke="#6E737B" stroke-width="4"/>
</g>
<path id="Vector_14" d="M117.533 81.579L178.808 68.4211L253.7 81.579V123.684L185.617 137.369L117.533 123.684V81.579Z" fill="#F8FAFC" stroke="#22252A" stroke-width="2"/>
<path id="Vector_15" d="M117.533 81.5789L185.617 94.7368M185.617 94.7368L253.7 81.5789M185.617 94.7368V136.842" stroke="#6E737B" stroke-width="2"/>
<g id="Vector_16">
<path d="M134.733 106.842H166.267H134.733Z" fill="#22252A"/>
<path d="M134.733 106.842H166.267" stroke="#6E737B" stroke-width="4"/>
</g>
<path id="Vector_17" d="M263.733 77.8947L325.008 64.7368L399.9 77.8947V121.053L331.817 134.737L263.733 121.053V77.8947Z" fill="#F8FAFC" stroke="#22252A" stroke-width="2"/>
<path id="Vector_18" d="M263.733 77.8948L331.817 91.0527M331.817 91.0527L399.9 77.8948M331.817 91.0527V134.211" stroke="#6E737B" stroke-width="2"/>
<g id="Vector_19">
<path d="M280.933 103.79H312.467H280.933Z" fill="#22252A"/>
<path d="M280.933 103.79H312.467" stroke="#6E737B" stroke-width="4"/>
</g>
<path id="Vector_20" d="M183.467 43.6843L244.742 30.5264L319.633 43.6843V80.5264L251.55 94.2106L183.467 80.5264V43.6843Z" fill="#F8FAFC" stroke="#22252A" stroke-width="2"/>
<path id="Vector_21" d="M183.467 43.6843L251.55 56.8422M251.55 56.8422L319.633 43.6843M251.55 56.8422V93.6843" stroke="#6E737B" stroke-width="2"/>
<g id="Vector_22">
<path d="M200.667 65.7896H232.2H200.667Z" fill="#22252A"/>
<path d="M200.667 65.7896H232.2" stroke="#6E737B" stroke-width="4"/>
</g>
</g>
</g>
</g>
<defs>
<clipPath id="clip0_147_18664">
<path d="M0 16C0 7.16344 7.16344 0 16 0H500C508.837 0 516 7.16344 516 16V224C516 232.837 508.837 240 500 240H16C7.16345 240 0 232.837 0 224V16Z" fill="white"/>
</clipPath>
<clipPath id="clip1_147_18664">
<rect width="516" height="240" fill="white"/>
</clipPath>
</defs>
</svg>
