<svg width="20" height="20" viewBox="0 0 20 20" fill="none" xmlns="http://www.w3.org/2000/svg">
<g id="Icon/grid">
<g id="Group">
<path id="Vector" d="M7.50004 3.33325H4.16671C3.70647 3.33325 3.33337 3.70635 3.33337 4.16659V7.49992C3.33337 7.96016 3.70647 8.33325 4.16671 8.33325H7.50004C7.96028 8.33325 8.33337 7.96016 8.33337 7.49992V4.16659C8.33337 3.70635 7.96028 3.33325 7.50004 3.33325Z" fill="#3D424A" stroke="#6E737B" stroke-width="1.5" stroke-linecap="round" stroke-linejoin="round"/>
<path id="Vector_2" d="M15.8334 3.33325H12.5001C12.0398 3.33325 11.6667 3.70635 11.6667 4.16659V7.49992C11.6667 7.96016 12.0398 8.33325 12.5001 8.33325H15.8334C16.2937 8.33325 16.6667 7.96016 16.6667 7.49992V4.16659C16.6667 3.70635 16.2937 3.33325 15.8334 3.33325Z" fill="#3D424A" stroke="#6E737B" stroke-width="1.5" stroke-linecap="round" stroke-linejoin="round"/>
<path id="Vector_3" d="M7.50004 11.6665H4.16671C3.70647 11.6665 3.33337 12.0396 3.33337 12.4998V15.8332C3.33337 16.2934 3.70647 16.6665 4.16671 16.6665H7.50004C7.96028 16.6665 8.33337 16.2934 8.33337 15.8332V12.4998C8.33337 12.0396 7.96028 11.6665 7.50004 11.6665Z" fill="#3D424A" stroke="#6E737B" stroke-width="1.5" stroke-linecap="round" stroke-linejoin="round"/>
<path id="Vector_4" d="M15.8334 11.6665H12.5001C12.0398 11.6665 11.6667 12.0396 11.6667 12.4998V15.8332C11.6667 16.2934 12.0398 16.6665 12.5001 16.6665H15.8334C16.2937 16.6665 16.6667 16.2934 16.6667 15.8332V12.4998C16.6667 12.0396 16.2937 11.6665 15.8334 11.6665Z" fill="#3D424A" stroke="#6E737B" stroke-width="1.5" stroke-linecap="round" stroke-linejoin="round"/>
</g>
</g>
</svg>
