<svg width="20" height="20" viewBox="0 0 20 20" fill="none" xmlns="http://www.w3.org/2000/svg">
<g id="Icon/grid">
<g id="Group">
<path id="Vector" d="M7.50004 3.33337H4.16671C3.70647 3.33337 3.33337 3.70647 3.33337 4.16671V7.50004C3.33337 7.96028 3.70647 8.33337 4.16671 8.33337H7.50004C7.96028 8.33337 8.33337 7.96028 8.33337 7.50004V4.16671C8.33337 3.70647 7.96028 3.33337 7.50004 3.33337Z" fill="#F26A2E" stroke="#F26A2E" stroke-width="1.5" stroke-linecap="round" stroke-linejoin="round"/>
<path id="Vector_2" d="M15.8334 3.33337H12.5001C12.0398 3.33337 11.6667 3.70647 11.6667 4.16671V7.50004C11.6667 7.96028 12.0398 8.33337 12.5001 8.33337H15.8334C16.2937 8.33337 16.6667 7.96028 16.6667 7.50004V4.16671C16.6667 3.70647 16.2937 3.33337 15.8334 3.33337Z" fill="#F26A2E" stroke="#F26A2E" stroke-width="1.5" stroke-linecap="round" stroke-linejoin="round"/>
<path id="Vector_3" d="M7.50004 11.6667H4.16671C3.70647 11.6667 3.33337 12.0398 3.33337 12.5001V15.8334C3.33337 16.2937 3.70647 16.6667 4.16671 16.6667H7.50004C7.96028 16.6667 8.33337 16.2937 8.33337 15.8334V12.5001C8.33337 12.0398 7.96028 11.6667 7.50004 11.6667Z" fill="#F26A2E" stroke="#F26A2E" stroke-width="1.5" stroke-linecap="round" stroke-linejoin="round"/>
<path id="Vector_4" d="M15.8334 11.6667H12.5001C12.0398 11.6667 11.6667 12.0398 11.6667 12.5001V15.8334C11.6667 16.2937 12.0398 16.6667 12.5001 16.6667H15.8334C16.2937 16.6667 16.6667 16.2937 16.6667 15.8334V12.5001C16.6667 12.0398 16.2937 11.6667 15.8334 11.6667Z" fill="#F26A2E" stroke="#F26A2E" stroke-width="1.5" stroke-linecap="round" stroke-linejoin="round"/>
</g>
</g>
</svg>
