<svg width="40" height="40" viewBox="0 0 40 40" fill="none" xmlns="http://www.w3.org/2000/svg">
<path d="M20 1.5C30.2173 1.5 38.5 9.78273 38.5 20C38.5 30.2173 30.2173 38.5 20 38.5C9.78273 38.5 1.5 30.2173 1.5 20C1.5 9.78273 9.78273 1.5 20 1.5Z" fill="#1E8A57"/>
<path d="M20 1.5C30.2173 1.5 38.5 9.78273 38.5 20C38.5 30.2173 30.2173 38.5 20 38.5C9.78273 38.5 1.5 30.2173 1.5 20C1.5 9.78273 9.78273 1.5 20 1.5Z" stroke="white" stroke-width="3"/>
<path d="M25 28V17H14V28H25ZM25 28H32V25L29 21H25" stroke="white" stroke-width="1.8" stroke-linecap="round" stroke-linejoin="round"/>
<path d="M18 31C19.1046 31 20 30.1046 20 29C20 27.8954 19.1046 27 18 27C16.8954 27 16 27.8954 16 29C16 30.1046 16.8954 31 18 31Z" stroke="white" stroke-width="1.8" stroke-linecap="round" stroke-linejoin="round"/>
<path d="M29 31C30.1046 31 31 30.1046 31 29C31 27.8954 30.1046 27 29 27C27.8954 27 27 27.8954 27 29C27 30.1046 27.8954 31 29 31Z" stroke="white" stroke-width="1.8" stroke-linecap="round" stroke-linejoin="round"/>
</svg>
